<?xml version="1.0" encoding="UTF-8"?>
<svg id="_图层_1" data-name="图层_1" xmlns="http://www.w3.org/2000/svg" version="1.1" viewBox="0 0 800 800">
  <!-- Generator: Adobe Illustrator 30.4.0, SVG Export Plug-In . SVG Version: 2.1.4 Build 226)  -->
  <path d="M265.3801,197.4685l14.4284-44.441-37.7548-27.4685h46.672l14.4288-44.4408,14.428,44.4408h46.672l-37.755,27.4685,14.428,44.441-37.754-27.469-37.7551,27.469h-.0383ZM251.7938,128.7388l31.727,23.0827-12.1129,37.334,31.7266-23.083,31.727,23.083-12.112-37.334,31.727-23.0827h-39.229l-12.132-37.3533-12.113,37.3533h-39.2279.0192Z" style="fill: #fff;"/>
  <path d="M334.8805,189.1555l-12.112-37.334,31.727-23.0827h-39.229l-12.113-37.3533-12.132,37.3533h-39.2278l31.7461,23.0827-12.132,37.334,31.7457-23.063,31.727,23.063Z"/>
  <path d="M362.2455,166.3215l14.428-44.4403-37.755-27.4691h46.672l14.409-44.4216,14.429,44.4408h46.672l-37.755,27.469,14.428,44.4412-37.754-27.4694-37.755,27.4694-.019-.02ZM348.6585,97.592l31.727,23.0824-12.113,37.3341,31.727-23.0824,31.727,23.0824-12.112-37.3341,31.727-23.0824h-39.229l-12.132-37.3533-12.113,37.3533h-39.228.019Z" style="fill: #fff;"/>
  <path d="M431.7465,158.0275l-12.132-37.3532,31.746-23.0824h-39.228l-12.132-37.3341-12.113,37.3341h-39.229l31.727,23.0824-12.112,37.3532,31.727-23.0823,31.746,23.0823Z"/>
  <path d="M459.1105,197.4685l14.428-44.441-37.755-27.4685h46.672l14.429-44.4408,14.428,44.4408h46.672l-37.755,27.4685,14.428,44.441-37.754-27.469-37.755,27.469h-.038ZM445.5235,128.7388l31.727,23.0827-12.113,37.334,31.727-23.083,31.727,23.083-12.113-37.334,31.728-23.0827h-39.229l-12.132-37.3533-12.113,37.3533h-39.228.019Z" style="fill: #fff;"/>
  <path d="M528.5925,189.1555l-12.113-37.334,31.727-23.0827h-39.209l-12.132-37.3533-12.113,37.3533h-39.229l31.727,23.0827-12.112,37.334,31.727-23.063,31.727,23.063Z"/>
  <path d="M398.3925,748.1135c-8.286-9.712-18.37-21.014-30.311-31.166-18.791-16.168-39.63-27.373-62.956-39.327-27.9769-14.309-56.891-29.097-78.6865-54.803-14.2561-16.8571-24.0345-38.101-29.0672-63.099-4.3055-21.339-4.9944-45.437-2.0475-69.687,2.1623-17.47,6.2-34.959,11.6919-50.571,3.6932-10.459,6.0852-17.91,7.9987-24.902,7.8648-29.021,4.3056-56.375-11.1561-86.066-3.8654-7.394-8.458-14.194-13.6438-21.684l-1.2055-1.762,1.7605-1.207c8.8981-6.072,18.3129-12.643,26.8474-20.439,13.5672-12.221,24.5894-26.377,32.7603-42.085,5.492-10.516,9.4914-21.569,13.4525-32.909l1.0333-2.988,2.3728,2.088c11.7685,10.44,25.1062,22.259,42.7872,26.281,4.631,1.073,9.358,1.59,14.429,1.59,7.998,0,16.762-1.322,26.77-4.023,17.318-4.654,33.316-6.915,48.873-6.915s31.498,2.261,48.681,6.915c10.008,2.701,18.773,4.023,26.771,4.023,5.071,0,9.798-.517,14.429-1.59,17.681-4.042,31.019-15.861,42.787-26.281l2.373-2.088,1.033,2.988c3.961,11.34,7.961,22.374,13.453,32.909,8.19,15.727,19.193,29.883,32.76,42.085,8.554,7.796,17.949,14.367,26.847,20.439l1.761,1.207-1.225,1.762c-5.186,7.49-9.778,14.29-13.644,21.684-15.461,29.672-19.001,57.026-11.156,86.066,1.914,6.992,4.306,14.443,7.999,24.902,5.492,15.612,9.549,33.082,11.692,50.571,2.966,24.27,2.258,48.367-2.048,69.687-5.032,25.017-14.811,46.242-29.067,63.099-21.795,25.706-50.709,40.494-78.686,54.803-23.326,11.954-44.146,23.179-62.956,39.327-11.96,10.152-22.045,21.454-30.33,31.166l-1.608,1.896-1.607-1.896h.038Z" style="fill: #fff; fill-rule: evenodd;"/>
  <path d="M555.0755,630.1345c.345-.307.689-.632,1.034-.939-.345.326-.689.632-1.034.939Z" style="fill-rule: evenodd;"/>
  <path d="M587.8175,581.7095c4.707-12.605,7.845-26.55,9.338-41.453,3.234-31.568-1.129-67.331-11.998-98.076-6.047-17.278-11.156-32.909-12.553-49.057-1.837-21.32,3.616-44.345,16.169-68.481,2.871-5.479,6.258-11.034,10.659-17.47-17.452-11.857-31.249-24.5-42.213-38.675-10.755-13.869-18.964-29.346-25.815-48.693-13.662,11.991-26.235,19.002-39.553,22.067-13.242,3.045-27.613,2.26-45.218-2.49-34.425-9.329-58.823-9.329-93.248,0-17.605,4.731-31.957,5.516-45.199,2.49-13.318-3.065-25.8903-10.076-39.5532-22.067-6.8506,19.366-15.0598,34.824-25.8141,48.693-10.9648,14.175-24.7616,26.818-42.2326,38.675,4.4204,6.436,7.7883,11.991,10.6586,17.47,12.5148,24.021,17.9493,47.065,16.1697,68.481-1.416,16.148-6.5253,31.76-12.553,49.057-10.85,30.706-15.2512,66.45-12.0746,98.076,1.5308,14.922,4.6882,28.868,9.3956,41.453,5.0901,13.619,12.0172,25.668,20.59,35.763,20.5709,24.27,48.7961,38.733,76.1026,52.735,11.309,5.785,23.001,11.781,33.966,18.39,21.47,12.91,40.185,28.848,57.178,48.693,16.992-19.845,35.707-35.763,57.177-48.693,10.984-6.609,22.657-12.605,33.966-18.39,27.288-13.983,55.513-28.465,76.084-52.735,8.572-10.114,15.5-22.144,20.59-35.763h-.019Z" style="fill-rule: evenodd;"/>
  <path d="M237.9204,623.3145c.1722.173.3444.364.5167.556-.1723-.172-.3445-.364-.5167-.556Z" style="fill-rule: evenodd;"/>
  <path d="M243.8908,629.1765c.3445.326.7081.632,1.0716.958-.3635-.326-.708-.632-1.0716-.958Z" style="fill-rule: evenodd;"/>
  <path d="M561.5825,623.8705c.172-.172.325-.345.478-.517-.172.172-.325.345-.478.517Z" style="fill-rule: evenodd;"/>
  <path d="M460.7755,250.8365v128.591l-3.828,2.586c-8.993,6.072-22.254,7.834-35.458,4.693-16.036-3.831-26.943-3.831-42.941,0-13.222,3.141-26.464,1.379-35.458-4.693l-3.827-2.586v-128.591c-25.221,3.639-45.888-1.705-66.8604-17.26v406.844c5.8555,3.793,11.9598,7.318,18.2174,10.747,16.016,8.524,32.722,16.09,48.643,24.672v-120.699c6.295,3.678,12.955,6.685,19.518,9.635,5.09,2.28,9.893,4.444,14.448,6.877,8.247,4.368,15.653,9.712,22.025,15.899l4.784,4.636,4.784-4.636c6.372-6.187,13.797-11.5309,22.044-15.899,4.554-2.413,9.357-4.578,14.428-6.877,6.564-2.95,13.223-5.957,19.519-9.635v120.699c15.921-8.582,32.626-16.167,48.662-24.691,6.257-3.429,12.342-6.954,18.198-10.747V233.5765c-20.973,15.555-41.639,20.918-66.86,17.26h-.038Z" style="fill: #fff;"/>
  <path d="M488.2155,652.4315h.517c7.998,0,20.896-4.08,22.542-15.2859.956-6.494-3.942-13.1411-11.386-15.478l-.804-.249.785-.345c7.099-3.122,10.792-8.984,9.625-15.286-1.741-9.463-13.261-13.619-21.088-13.619h-.516c-7.578,0-16.648,4.291-18.868,11.531-.88,2.931-.364,6.302,1.339,8.601,1.015,1.36,2.909,3.008,6.162,3.008,4.019-.077,6.602-2.989,7.367-5.862.651-2.452.249-5.766-2.87-7.643l-.153-.096v-.191c.134-2.299,2.315-3.812,5.702-3.966h.326c3.004,0,5.645,1.15,7.463,3.257,2.181,2.509,3.08,6.13,2.449,9.942-1.397,8.6201-7.788,8.734-14.582,8.869h-.287v4.195l.536.038c6.966.364,13.548.709,15.06,9.6349.746,4.348-.651,9.846-5.511,12.355-2.889,1.322-6.774,1.246-9.032-.21-1.282-.824-1.971-2.012-1.971-3.41v-.172l.153-.096c2.507-1.571,3.578-4.368,2.756-7.26-.804-2.893-3.521-5.823-7.808-5.9-2.507,0-4.535.958-5.913,2.797-1.722,2.298-2.2,5.7271-1.244,8.945,2.278,7.49,11.52,11.915,19.194,11.915l.057-.019Z" style="fill-rule: evenodd;"/>
  <path d="M427.7085,592.6665c-13.606,0-24.666,13.2939-24.666,29.633s11.06,29.634,24.666,29.634c13.567,0,24.608-13.294,24.608-29.634s-11.041-29.633-24.608-29.633ZM427.7085,647.2785c-5.435,0-9.664-10.976-9.664-24.979s4.248-24.978,9.664-24.978,9.606,10.976,9.606,24.978-4.229,24.979-9.606,24.979Z" style="fill: #fff; fill-rule: evenodd;"/>
  <path d="M369.5935,651.9525c13.356,0,24.225-13.2939,24.225-29.634s-10.849-29.633-24.206-29.633c-5.798-.134-11.309,1.781-15.098,5.287-3.827,3.582-5.971,9.079-5.626,14.366.306,4.464,2.373,8.256,5.817,10.728,6.411,4.539,16.074,4.673,22.982.306l1.11-.69.038,1.303c.249,11.129-3.368,23.159-9.185,23.331-1.091,0-1.914-.287-2.468-.881-.9-.938-.995-2.394-.938-3.697v-.211l.115-.172c1.052-1.666.976-5.459-.173-7.681-1.262-2.471-3.808-3.755-7.405-3.755h-.708c-3.483.173-5.99,1.877-7.08,4.77-1.282,3.448-.172,7.643,2.755,10.44,4.076,3.946,11.252,5.9,15.883,5.804l-.038.019ZM375.5445,617.4535c-1.416,2.528-3.464,3.869-5.932,3.869s-4.555-1.3019-5.971-3.754c-1.186-2.069-1.837-4.866-1.837-7.873,0-6.13,2.679-12.355,7.789-12.355s7.769,6.263,7.769,12.087c0,3.065-.651,5.919-1.837,8.045l.019-.019Z" style="fill: #fff; fill-rule: evenodd;"/>
  <path d="M331.1495,651.4165h-26.235l-.402-4.54,7.061-3.391v-34.326h-10.008v-6.149c5.473-2.069,11.692-3.812,17.835-9.808h5.147v50.283l7.061,3.391-.459,4.54Z" style="fill-rule: evenodd;"/>
  <path d="M523.9995,361.1335c-7.023-5.229-8.42-14.807-9.664-23.236-.287-1.992-.574-3.85-.899-5.65-3.062-16.244-9.951-23.677-21.049-22.681l16.705-27.373c2.966-4.865,5.837-7.107,10.774-10.056l.65-.384h-23.537l.383.364c3.789,3.659,5.033,6.073,2.335,10.747l-14.103,24.365v-27.833c0-2.49,1.32-4.865,4.037-7.259l.421-.364h-26.139l.421.364c2.794,2.471,4.114,4.769,4.114,7.259v70.186c-.268,5.268-.555,5.996-1.665,6.858-1.971,1.475-2.985,2.873-3.846,5.364l-.134.383.383-.115c7.424-2.165,21.623-1.609,28.148-.268l.364.076-.115-.345c-.708-2.011-1.837-2.796-3.157-3.716-.364-.249-.747-.517-1.148-.843-1.187-.938-1.474-2.183-1.684-7.394v-33.598c10.275.153,11.864,11.684,13.395,22.833,1.53,11.187,3.119,22.757,13.548,22.757.268,0,.555,0,.823-.02h11.156l-.517-.383v-.038Z"/>
  <path d="M329.2365,322.7655c-3.866-4.828-8.611-7.931-13.491-8.812,4.42-1.015,7.941-3.237,10.257-6.455,6.219-8.448,5.377-20.458-2.029-29.213-4.764-5.574-8.917-6.551-15.882-6.551h-32.5119l.4019.364c1.837,1.667,4.0376,4.329,4.0376,7.528v70.186c-.2679,5.23-.5549,6.475-1.6648,7.394-.3636.288-.708.537-1.0333.766-1.3587.958-2.4303,1.724-3.1574,3.793l-.1531.46.4401-.192c1.7414-.747,11.6728-3.084,20.3989-1.475,1.531.154,3.119.364,4.822.575,6.487.843,13.835,1.801,19.691-.249,6.984-2.433,12.208-8.084,14.332-15.535,2.258-7.95.593-16.397-4.458-22.604v.02ZM313.8895,325.3895c1.875,5.9,1.856,16.052.67,21.492-.441,1.993-1.512,3.525-3.177,4.559-4.593,2.816-12.381,1.092-13.586.805v-34.193l6.468-.057c4.879,0,8.037,2.433,9.644,7.413l-.019-.019ZM297.7965,309.8545v-31.588h3.98c3.712,0,4.42.115,5.875.977,4.248,2.567,4.363,10.057,4.42,14.08v.593c.134,6.877-.976,11.398-3.349,13.831-1.358,1.379-3.176,2.088-5.396,2.088h-5.53v.019Z"/>
  <path d="M383.8875,271.7345l-.038.173c-.536,3.314-1.837,5.076-3.731,7.375l-.211.249.306.095c2.66.728,4.612.039,7.329-.919.861-.307,1.818-.651,2.89-.977,3.329-.996,8.764-.728,12.476-.019v70.875c0,2.05-.784,3.755-2.334,5.038-2.928,2.433-8.477,3.257-14.467,2.107-5.109-.958-11.347-3.409-12.151-9.654.038-.077.057-.192.096-.307,0-.038,0-.076.038-.115,3.119.326,5.874-.459,7.75-2.202,1.665-1.552,2.487-3.755,2.373-6.322,0-5.306-4.823-8.122-9.3-8.505-5.856-.479-8.841,2.337-10.315,4.77-2.851,4.731-2.43,12.106,1.015,17.546,3.502,5.421,9.242,8.467,13.452,10.076,4.114,1.533,8.458,2.126,12.859,2.126,8.784,0,17.873-2.413,26.14-4.903,1.664-.709,3.291-.843,5.128-.384l.785.192-.594-.555c-.937-.882-1.014-2.606-1.205-7.203v-71.239c0-3.084,2.086-5.191,4.037-6.896l.421-.364h-42.749v-.058Z" style="fill: #fff;"/>
  <path d="M479.1265,472.4655c-6.066-15.42-8.688-27.086-1.857-42.928,1.704-3.907,3.789-7.681,6.2-11.167-11.328-7.471-16.992-18.447-22.695-30.668-11.691,7.892-27.344,8.888-40.893,5.67-7.309-1.743-13.605-2.624-19.882-2.624s-12.572.881-19.882,2.624c-13.548,3.218-29.182,2.203-40.873-5.67-5.703,12.221-11.367,23.197-22.695,30.668,2.411,3.486,4.496,7.26,6.2,11.167,6.831,15.842,4.209,27.508-1.857,42.928-4.286,10.823-6.563,24.289-5.128,37.142,1.206,10.613,4.994,20.727,12.4,28.485,12.763,13.409,32.148,18.925,48.26,27.507,8.707,4.617,16.61,10.267,23.595,17.029,6.984-6.762,14.906-12.432,23.594-17.029,16.112-8.582,35.497-14.098,48.26-27.507,7.406-7.739,11.195-17.872,12.4-28.485,1.416-12.834-.861-26.319-5.128-37.142h-.019Z" style="fill: #e30a17; fill-rule: evenodd;"/>
  <path d="M399.9995,454.2485l5.263-16.416h17.26l-13.988-10.114,5.396-16.417-13.931,10.172-13.911-10.172,5.396,16.417-13.988,10.114h17.26l5.243,16.416Z" style="fill: #fff; fill-rule: evenodd;"/>
  <path d="M436.0135,446.9885c12.496,10.306,20.456,25.745,20.456,42.947,0,30.783-25.431,55.876-56.469,55.876s-56.47-25.093-56.47-55.876c0-17.202,7.96-32.641,20.456-42.947-4.899,7.107-7.75,15.573-7.75,24.806,0,24.021,19.672,43.732,43.744,43.732s43.745-19.691,43.745-43.732c0-9.252-2.832-17.776-7.75-24.806" style="fill: #fff; fill-rule: evenodd;"/>
</svg>