<?xml version="1.0" encoding="UTF-8"?>
<svg id="_图层_1" data-name="图层_1" xmlns="http://www.w3.org/2000/svg" xmlns:xlink="http://www.w3.org/1999/xlink" version="1.1" viewBox="0 0 800 800">
  <!-- Generator: Adobe Illustrator 30.4.0, SVG Export Plug-In . SVG Version: 2.1.4 Build 226)  -->
  <defs>
    <clipPath id="clippath">
      <rect x="50.0029" y="50.0058" width="699.9942" height="699.9942" style="fill: none;"/>
    </clipPath>
  </defs>
  <g style="clip-path: url(#clippath);">
    <g>
      <path d="M639.218,288.8248c0,131.8969-106.9751,238.823-238.936,238.823s-238.933-106.9261-238.933-238.823S268.3241,50,400.282,50s238.936,106.9259,238.936,238.8248Z" style="fill: #231f20;"/>
      <path d="M205.3586,288.8248c0-107.4321,87.4433-194.8342,194.9254-194.8342s194.9234,87.4021,194.9234,194.8342-87.4432,194.8324-194.9234,194.8324-194.9254-87.4023-194.9254-194.8324ZM183.3538,288.8248c0,119.558,97.3142,216.8282,216.9302,216.8282s216.9282-97.2702,216.9282-216.8282-97.3142-216.8302-216.9282-216.8302-216.9302,97.2702-216.9302,216.8302Z" style="fill: #fff;"/>
      <path d="M286.9429,417.3947c46.8106-46.7016,153.4777-153.1157,174.1446-173.7366l102.5722,101.8991-.4,1.062c-23.8398,66.9684-87.8993,115.0431-162.9756,115.0431-43.7996,0-83.8473-16.3609-114.349-43.2886l1.008-.979Z" style="fill: #fff;"/>
      <path d="M338.6975,332.4864l-60.0265-59.6335-47.4026,47.2936-.894.883c-2.007-10.6169-3.015-21.3998-3.01-32.2047,0-95.3052,77.5714-172.8407,172.9196-172.8407s172.9186,77.5355,172.9186,172.8407c0,10.6789-.975,21.1348-2.8379,31.2838l-.0941,1.007-109.2141-108.5001-121.216,120.933-1.143-1.062Z" style="fill: #fff;"/>
      <path d="M323.6186,349.7313l-52.4586,52.3366-.743.76c-14.3819-16.3469-25.7298-35.4207-33.1567-56.3336l-.328-.923c19.5838-19.5378,35.1237-35.0437,41.7727-41.6737l45.4806,45.1816-.567.652Z" style="fill: #fff;"/>
      <path d="M686.5526,594.6003v88.1273h22.8978v-88.0543l.028-.52h27.4318l2.081-20.8058h-88.6143l7.7309,20.8058h28.4358l.009.447ZM461.4385,594.1533h18.5489c13.3809.101,22.6998,3.072,22.6998,15.1599,0,9.9079-5.3539,16.6438-20.0238,16.6438h-21.7078v-31.8007l.483-.0031ZM438.0587,588.9523v93.7732h22.8968v-35.9637h13.7899l.29.034,28.0628,35.6457.231.286h26.4668l-.247-.316-29.8997-37.9797.39-.089c5.173-1.341,9.8659-3.2879,13.5649-5.9439,8.3109-6.695,12.8709-16.1729,12.8709-30.8697,0-10.9499-4.883-18.4088-10.9029-23.5788-9.6709-8.3059-23.6738-10.5419-35.5847-10.6029h-48.1746l6.2629,15.1259-.017.479ZM222.8905,594.1533h18.5478c13.3819.101,22.6998,3.072,22.6998,15.1599,0,9.9079-5.353,16.6438-20.0228,16.6438h-21.7058l-.001-.334v-31.4667l.482-.0031ZM199.5107,588.9523v93.7732h22.8978v-35.9637h13.7889l.29.034,28.0628,35.6457.232.286h26.4658l-.247-.316-29.8988-37.9797.388-.089c5.175-1.341,9.8659-3.2879,13.5659-5.9439,8.3109-6.695,12.8709-16.1729,12.8709-30.8697,0-10.9499-4.883-18.4088-10.9029-23.5788-9.6709-8.3059-23.6738-10.5419-35.5857-10.6029h-48.1726l6.2619,15.1259-.017.479ZM281.737,720.6652h4.746l12.8229,29.3348h-5.4119l-2.955-7.0319h-13.7809l-2.997,7.0319h-5.246l12.8219-29.3348ZM289.0639,738.4331l-5.037-11.6519-4.996,11.6519h10.0329ZM314.2937,720.8722h12.9889c6.8269,0,10.8219,3.662,10.8219,9.2779,0,4.7859-2.872,7.6589-6.9509,8.8229l7.8679,11.0259h-6.036l-7.2429-10.152h-6.33v10.1529h-5.121l.002-29.1278ZM326.9076,735.3141c3.664,0,5.9949-1.917,5.9949-4.955,0-3.121-2.247-4.827-6.036-4.827h-7.4519v9.7809l7.4929.001ZM400.51,720.8722h21.6068v4.5769h-16.4859v7.574h14.6119v4.576h-14.6119v7.8229h16.6939v4.578h-21.8148v-29.1278ZM438.3937,720.8722h4.7469l15.6119,20.1408v-20.1408h5.037v29.1278h-4.288l-16.0709-20.7218v20.7218h-5.0369v-29.1278ZM481.5653,720.8722h5.121v29.1278h-5.121v-29.1278ZM514.787,720.6652h4.745l12.8219,29.3348h-5.411l-2.954-7.0319h-13.7819l-2.997,7.0319h-5.247l12.8239-29.3348ZM522.114,738.4331l-5.038-11.6519-4.996,11.6519h10.0339ZM614.2473,643.4929h-35.5357l-.411.038,18.0818-46.1517.212.49,17.8958,45.6786-.243-.055ZM563.0477,682.4696l7.7859-19.8778.409-.075h50.3656l.33.039,7.804,19.9209.093.251h23.9618l-.07-.176-44.5026-108.8631-.143-.338h-36.9087l5.9599,13.4779-39.0546,95.5382-.137.362h24.0118l.095-.259ZM375.7002,643.4929h-35.5357l-.411.038,18.0819-46.1517.212.49,17.8958,45.6786-.243-.055ZM324.4986,682.4675l7.788-19.8768.407-.075h50.3666l.329.039,7.8059,19.9208.092.25h23.9628l-.071-.175-44.5026-108.8631-.143-.3379h-36.9097l5.961,13.4779-39.0537,95.5382-.138.362h24.0118l.094-.26ZM136.3103,643.4929h-35.536l-.4119.038,18.0822-46.1517.2128.49,17.8946,45.6786-.2417-.055ZM85.1085,682.4696l7.7878-19.8778.4069-.075h50.3667l.3305.039,7.8036,19.9209.093.251h23.9618l-.069-.176-44.5041-108.8631-.1427-.338h-36.9108l5.9637,13.4779-39.0556,95.5382-.1377.362h24.012l.0939-.259ZM359.4203,729.1941v20.8049h-5.037v-29.1278h5.452l8.8689,13.7729,8.8669-13.7729h5.4539v29.1278h-5.121v-20.8898l-6.7709,10.0899h-5.0369l-6.6759-10.0049Z" style="fill: #231f20;"/>
    </g>
  </g>
</svg>