<?xml version="1.0" encoding="UTF-8"?>
<svg id="Layer_1" xmlns="http://www.w3.org/2000/svg" version="1.1" viewBox="0 0 800 800">
  <!-- Generator: Adobe Illustrator 30.4.0, SVG Export Plug-In . SVG Version: 2.1.4 Build 226)  -->
  <path d="M654.7466,400.6014c.001-.0783.0068-.1623.0068-.2396.2412-1.9291.2412-3.8581.2412-5.546,0-1.2057,0-2.4113-.2412-2.4112V99.6727h-169.7554c-3.3757,0-6.7516-.2411-10.1274-.4823-7.7161-.9645-15.4321-2.8936-22.9072-5.546-22.184-8.1984-36.6519-26.7654-52.3252-43.6445-15.4324,16.3968-30.3823,35.4461-52.0841,43.6445-8.1984,3.3758-16.879,4.8226-25.8009,5.546-5.0637.4823-10.3687.4823-15.9146.4823h-161.0748v295.143c0,1.9291.2411,3.6169.2411,5.546s0,3.617.2411,5.546h.9413c.0094.0812.0134.1577.0237.2397.2412,1.9291.2412,3.617.4823,5.546.4823,1.9291.4823,3.6169.7234,5.546s.4823,3.617.7234,5.546c0,1.9291.4823,3.617.7234,5.546.2411,1.9291.7234,3.8581.9645,5.546.2411,1.9291.7234,3.617.9645,5.546.4822,1.9291.9645,3.6169,1.2056,5.546.2411,1.9291.7233,3.617,1.2056,5.546.2411,1.9291.7233,3.617,1.2056,5.546.4823,1.9291.9645,3.6169,1.4468,5.546s.9645,3.8581,1.6879,5.546c.4823,1.9291.9645,3.617,1.6879,5.546.4823,1.9291.9645,3.6169,1.6879,5.546.7234,1.9291,1.2056,3.6169,1.929,5.546s1.2056,3.617,1.929,5.546c.7234,1.9291,1.4468,3.617,2.1702,5.546.7234,1.9291,1.4468,3.617,2.1702,5.546.4823,1.9291,1.4468,3.8581,2.1702,5.546.7234,1.9291,1.6879,3.617,2.4113,5.546.9645,1.9291,1.6879,3.617,2.6524,5.546.9645,1.9291,1.6879,3.617,2.6525,5.546.7234,1.9291,1.6877,3.6169,2.6523,5.546s1.929,3.6169,2.8936,5.546,1.9292,3.8581,2.8937,5.546c.9645,1.9291,2.1702,3.617,3.1346,5.546.9646,1.9291,1.9292,3.617,3.1348,5.546.9645,1.9291,2.1702,3.617,3.1348,5.546,1.2056,1.9291,2.1702,3.6169,3.3757,5.546s2.4113,3.6169,3.6169,5.546c1.2056,1.9291,2.4113,3.8581,3.6168,5.546,1.2057,1.9291,2.6525,3.8581,3.858,5.546,1.2058,1.9291,2.6525,3.6169,3.8582,5.546s2.6526,3.617,3.8582,5.546c1.4467,1.9291,2.8934,3.617,4.3403,5.546,1.4465,1.9291,2.8934,3.617,4.3402,5.546,1.4467,1.9291,2.8934,3.6169,4.3403,5.546,1.4468,1.9291,2.8936,3.8581,4.5814,5.546,1.4468,1.9291,2.8937,3.6169,4.5815,5.546,1.688,1.9291,3.1348,3.617,4.8226,5.546,1.4468,1.9291,3.1346,3.6169,4.8226,5.546,1.6879,1.9291,3.3757,3.6169,5.0637,5.546,1.6877,1.9291,3.6168,3.6169,5.3047,5.546,1.688,1.9291,3.6169,3.8581,5.3049,5.546,1.929,1.9291,3.6169,3.8581,5.5459,5.546,1.688,1.9291,3.6169,3.6169,5.546,5.546s3.858,3.6169,5.7871,5.546c1.929,1.9291,4.0992,3.617,6.0282,5.546,2.1702,1.9291,4.0991,3.617,6.2694,5.546,1.9291,1.9291,4.0992,3.8581,6.2694,5.546,2.1702,1.9291,4.3403,3.8581,6.5105,5.546,1.929,1.9291,4.3403,3.6169,6.5105,5.546,2.17,1.9291,4.5813,3.617,6.7516,5.546,2.4113,1.9291,4.5814,3.6169,6.9928,5.546,2.4113,1.9291,4.8225,3.6169,7.2339,5.546,2.4113,1.9291,4.8225,3.6169,7.2339,5.546s4.8225,3.8581,7.475,5.546c2.4113,1.9291,5.0637,3.8581,7.7162,5.546,2.4111,1.9291,5.0636,3.617,7.7161,5.546,2.8936,1.9291,5.5459,3.617,8.1984,5.546,2.8934,1.9291,5.546,3.6169,8.4396,5.546,2.8934,1.9291,5.5459,3.617,8.4395,5.546,2.8936,1.9291,5.7871,3.8581,8.6807,5.546,2.8936-1.9291,5.7871-3.617,8.6807-5.546h.001c2.8936-1.688,5.7871-3.617,8.9218-5.546,2.8934-1.9291,5.7871-3.617,8.4396-5.546,2.6523-1.9291,5.5459-3.8581,8.1982-5.546,2.6526-1.9291,5.3049-3.617,7.9574-5.546,2.6525-1.9291,5.0636-3.6169,7.7161-5.546s5.0637-3.617,7.475-5.546c2.6525-1.9291,5.0637-3.6169,7.4751-5.546,2.4113-1.9291,4.8225-3.6169,7.2339-5.546,2.4113-1.9291,4.8225-3.8581,6.9927-5.546,2.1702-1.9291,4.5815-3.8581,6.7517-5.546,2.1702-1.9291,4.3403-3.6169,6.5105-5.546s4.3403-3.617,6.5105-5.546c2.1702-1.9291,4.3403-3.617,6.2693-5.546,2.1703-1.9291,4.3406-3.617,6.2695-5.546,1.929-1.9291,3.858-3.8581,5.7871-5.546,1.929-1.929,3.858-3.8581,5.7871-5.546,1.9291-1.9291,3.6169-3.617,5.5459-5.546l5.5461-5.546c1.6879-1.9291,3.6168-3.6169,5.3047-5.546,1.688-1.9291,3.6169-3.617,5.3049-5.546,1.6879-1.9291,3.3757-3.6169,5.0637-5.546,1.6877-1.9291,3.1345-3.8581,4.8225-5.546,1.6879-1.9291,3.1346-3.8581,4.8225-5.546,1.4468-1.9291,3.1348-3.617,4.5815-5.546,1.6879-1.9291,3.1348-3.6169,4.5815-5.546,1.4465-1.9291,2.8934-3.617,4.3402-5.546,1.6879-1.9291,3.1346-3.617,4.3402-5.546,1.4468-1.9291,2.8936-3.8581,4.0992-5.546,1.4468-1.9291,2.8936-3.8581,4.0992-5.546,1.2056-1.9291,2.6523-3.6169,3.858-5.546s2.6525-3.6169,3.858-5.546,2.4114-3.617,3.6169-5.546c1.4467-1.9291,2.4114-3.6169,3.6169-5.546s2.1702-3.8581,3.3757-5.546c.9645-1.9291,2.1702-3.8581,3.1348-5.546.9644-1.9291,2.1702-3.8581,3.1346-5.546,1.2057-1.9291,2.17-3.6169,3.1346-5.546s1.9291-3.6169,2.8937-5.546,1.9291-3.617,2.8937-5.546c.9644-1.9291,1.6879-3.617,2.6523-5.546.9645-1.9291,1.688-3.8581,2.6523-5.546.9646-1.9291,1.688-3.8581,2.6525-5.546.7234-1.9291,1.6879-3.617,2.4113-5.546.7235-1.9291,1.4469-3.617,2.1703-5.546.7235-1.9291,1.4469-3.617,2.1703-5.546.9646-1.9291,1.4468-3.6169,2.1702-5.546s1.2056-3.8581,1.929-5.546c.7234-1.9291,1.4468-3.8581,1.9291-5.546.7234-1.9291,1.2057-3.8581,1.9291-5.546.4822-1.9291,1.2056-3.617,1.6879-5.546.7235-1.9291,1.2057-3.617,1.6879-5.546.4824-1.9291.9646-3.617,1.4468-5.546.2412-1.9291.7234-3.8581,1.2057-5.546.2411-1.9291.7233-3.8581,1.2057-5.546.4822-1.9291.9645-3.8581,1.2056-5.546.2411-1.9291.7234-3.617.9645-5.546.2411-1.9291.7234-3.617.9645-5.546.4822-1.9291.7234-3.6169.9645-5.546s.4823-3.8581.7234-5.546c.2411-1.9291.4823-3.8581.7234-5.546.2412-1.9291.4823-3.8581.4823-5.546.2412-1.9291.4823-3.8581.4823-5.546h-.4896Z" style="fill: #fff; fill-rule: evenodd;"/>
  <polygon points="294.7465 449.5522 294.7465 448.5878 505.2529 448.5878 505.2529 449.5522 505.2529 455.0983 505.2529 460.4031 505.2529 465.9491 505.2529 471.4951 505.2529 476.8 505.2529 478.2468 581.9322 478.2468 577.3507 482.3459 571.0813 487.892 565.0531 493.1967 559.0248 498.7428 552.9966 504.2888 546.9684 509.5936 546.0038 510.5582 551.0675 515.1396 557.0959 520.6855 563.1241 525.9905 568.9112 531.5364 574.9394 537.0823 580.9677 542.3873 581.9322 543.3517 483.3101 543.3517 483.3101 542.3873 483.3101 537.0823 483.3101 531.5364 483.3101 525.9905 483.3101 525.5082 316.6893 525.5082 316.6893 525.9905 316.6893 531.5364 316.6893 537.0823 316.6893 542.3873 316.6893 543.3517 217.8261 543.3517 218.7906 542.3873 224.8189 537.0823 230.8471 531.5364 236.6342 525.9905 242.6625 520.6855 248.6907 515.1396 253.7545 510.5582 252.7899 509.5936 246.7617 504.2888 240.7334 498.7428 234.7052 493.1967 228.6769 487.892 222.4076 482.3459 217.8261 478.2468 294.7465 478.2468 294.7465 476.8 294.7465 471.4951 294.7465 465.9491 294.7465 460.4031 294.7465 455.0983 294.7465 449.5522" style="fill: #015496; fill-rule: evenodd;"/>
  <path d="M654.9945,394.8158c0,1.6879,0,3.6169-.2411,5.546,0,1.6879-.2411,3.6169-.2411,5.546H145.246c-.2411-1.929-.2411-3.6169-.2411-5.546s-.2411-3.6169-.2411-5.546V99.6728h161.0747c5.546,0,10.8508,0,15.9146-.4823,8.9218-.7234,17.6025-2.1702,25.8009-5.546,21.7017-8.1984,36.6517-27.2477,52.0841-43.6445,15.6734,16.8791,30.1412,35.4461,52.3252,43.6445,7.475,2.6524,15.1912,4.5815,22.9073,5.546,3.3758.2411,6.7516.4823,10.1274.4823h169.7554v292.7318c.2411,0,.2411,1.2055.2411,2.4112h0ZM408.5598,744.454c-2.8936,1.929-5.7871,3.6169-8.6807,5.546-2.8936-1.6879-5.7871-3.6169-8.6807-5.546-2.8936-1.929-5.546-3.6169-8.4395-5.546s-5.546-3.6169-8.4395-5.546c-2.6524-1.929-5.3048-3.6169-8.1984-5.546-2.6524-1.929-5.3048-3.6169-7.7161-5.546-2.6524-1.6879-5.3048-3.6169-7.7161-5.546-2.6524-1.6879-5.0637-3.6169-7.475-5.546s-4.8226-3.6169-7.2339-5.546-4.8226-3.6169-7.2339-5.546-4.5815-3.6169-6.9928-5.546c-2.1702-1.929-4.5815-3.6169-6.7516-5.546s-4.5815-3.6169-6.5105-5.546c-2.1702-1.6879-4.3403-3.6169-6.5105-5.546-2.1702-1.6879-4.3403-3.6169-6.2694-5.546-2.1702-1.929-4.0992-3.6169-6.2694-5.546-1.929-1.929-4.0992-3.6169-6.0282-5.546s-3.8581-3.6169-5.7871-5.546-3.8581-3.6169-5.546-5.546c-1.929-1.6879-3.6169-3.6169-5.546-5.546-1.6879-1.6879-3.6169-3.6169-5.3048-5.546s-3.6169-3.6169-5.3048-5.546-3.3758-3.6169-5.0637-5.546-3.3758-3.6169-4.8226-5.546c-1.6879-1.929-3.1347-3.6169-4.8226-5.546s-3.1347-3.6169-4.5815-5.546c-1.6879-1.6879-3.1347-3.6169-4.5815-5.546s-2.8936-3.6169-4.3403-5.546c-1.4468-1.929-2.8936-3.6169-4.3403-5.546-1.4468-1.929-2.8936-3.6169-4.3403-5.546-1.2056-1.929-2.6524-3.6169-3.8581-5.546s-2.6524-3.6169-3.8581-5.546c-1.2056-1.6879-2.6524-3.6169-3.8581-5.546-1.2056-1.6879-2.4113-3.6169-3.6169-5.546s-2.4113-3.6169-3.6169-5.546-2.1702-3.6169-3.3758-5.546c-.9645-1.929-2.1702-3.6169-3.1347-5.546-1.2056-1.929-2.1702-3.6169-3.1347-5.546-.9645-1.929-2.1702-3.6169-3.1347-5.546-.9645-1.6879-1.929-3.6169-2.8936-5.546s-1.929-3.6169-2.8936-5.546-1.929-3.6169-2.6524-5.546c-.9645-1.929-1.6879-3.6169-2.6524-5.546-.9645-1.929-1.6879-3.6169-2.6524-5.546-.7234-1.929-1.6879-3.6169-2.4113-5.546-.7234-1.6879-1.6879-3.6169-2.1702-5.546-.7234-1.929-1.4468-3.6169-2.1702-5.546-.7234-1.929-1.4468-3.6169-2.1702-5.546-.7234-1.929-1.2056-3.6169-1.929-5.546s-1.2056-3.6169-1.929-5.546-1.2056-3.6169-1.6879-5.546c-.7234-1.929-1.2056-3.6169-1.6879-5.546-.7234-1.6879-1.2056-3.6169-1.6879-5.546s-.9645-3.6169-1.4468-5.546c-.4823-1.929-.9645-3.6169-1.2056-5.546-.4823-1.929-.9645-3.6169-1.2056-5.546s-.7234-3.6169-1.2056-5.546c-.2411-1.929-.7234-3.6169-.9645-5.546-.2411-1.6879-.7234-3.6169-.9645-5.546-.2411-1.929-.7234-3.6169-.7234-5.546-.2411-1.929-.4823-3.6169-.7234-5.546s-.2411-3.6169-.7234-5.546c-.2411-1.929-.2411-3.6169-.4823-5.546-.2411-1.929-.2411-3.6169-.2411-5.546h509.2662c0,1.6879-.2411,3.6169-.4823,5.546,0,1.6879-.2411,3.6169-.4823,5.546-.2411,1.6879-.4823,3.6169-.7234,5.546-.2411,1.6879-.4823,3.6169-.7234,5.546s-.4823,3.6169-.9645,5.546c-.2411,1.929-.7234,3.6169-.9645,5.546-.2411,1.929-.7234,3.6169-.9645,5.546-.2411,1.6879-.7234,3.6169-1.2056,5.546-.4823,1.6879-.9645,3.6169-1.2056,5.546-.4823,1.6879-.9645,3.6169-1.2056,5.546-.4823,1.929-.9645,3.6169-1.4468,5.546-.4823,1.929-.9645,3.6169-1.6879,5.546-.4823,1.929-1.2056,3.6169-1.6879,5.546-.7234,1.6879-1.2056,3.6169-1.929,5.546-.4823,1.6879-1.2056,3.6169-1.929,5.546-.7234,1.6879-1.2056,3.6169-1.929,5.546s-1.2056,3.6169-2.1702,5.546c-.7234,1.929-1.4468,3.6169-2.1702,5.546-.7234,1.929-1.4468,3.6169-2.1702,5.546-.7234,1.929-1.6879,3.6169-2.4113,5.546-.9645,1.6879-1.6879,3.6169-2.6524,5.546-.9645,1.6879-1.6879,3.6169-2.6524,5.546-.9645,1.929-1.6879,3.6169-2.6524,5.546-.9645,1.929-1.929,3.6169-2.8936,5.546s-1.929,3.6169-2.8936,5.546-1.929,3.6169-3.1347,5.546c-.9645,1.6879-2.1702,3.6169-3.1347,5.546-.9645,1.6879-2.1702,3.6169-3.1347,5.546-1.2056,1.6879-2.1702,3.6169-3.3758,5.546s-2.1702,3.6169-3.6169,5.546c-1.2056,1.929-2.4113,3.6169-3.6169,5.546s-2.6524,3.6169-3.8581,5.546-2.6524,3.6169-3.8581,5.546c-1.2056,1.6879-2.6524,3.6169-4.0992,5.546-1.2056,1.6879-2.6524,3.6169-4.0992,5.546-1.2056,1.929-2.6524,3.6169-4.3403,5.546-1.4468,1.929-2.8936,3.6169-4.3403,5.546s-2.8936,3.6169-4.5815,5.546c-1.4468,1.929-3.1347,3.6169-4.5815,5.546-1.6879,1.6879-3.1347,3.6169-4.8226,5.546-1.6879,1.6879-3.1347,3.6169-4.8226,5.546s-3.3758,3.6169-5.0637,5.546c-1.6879,1.929-3.6169,3.6169-5.3048,5.546s-3.6169,3.6169-5.3048,5.546l-5.546,5.546-5.546,5.546c-1.929,1.6879-3.8581,3.617-5.7871,5.546-1.929,1.6879-3.8581,3.6169-5.7871,5.546-1.929,1.929-4.0992,3.6169-6.2694,5.546h0c-1.929,1.929-4.0992,3.6169-6.2694,5.546-2.1702,1.929-4.3403,3.6169-6.5105,5.546s-4.3403,3.6169-6.5105,5.546c-2.1702,1.6879-4.5815,3.6169-6.7516,5.546-2.1702,1.6879-4.5815,3.6169-6.9928,5.546s-4.8226,3.6169-7.2339,5.546-4.8226,3.6169-7.475,5.546c-2.4113,1.929-4.8226,3.6169-7.475,5.546s-5.0637,3.6169-7.7161,5.546c-2.6524,1.929-5.3048,3.6169-7.9573,5.546-2.6524,1.6879-5.546,3.6169-8.1984,5.546-2.6524,1.929-5.546,3.6169-8.4395,5.546-3.1347,1.929-6.0282,3.858-8.9218,5.546h-.0009ZM326.3345,673.5619c2.1702,1.929,4.5815,3.6169,6.7516,5.546s4.5815,3.6169,6.7516,5.546c2.4113,1.929,4.8226,3.6169,7.2339,5.546,2.4113,1.6879,4.8226,3.6169,7.475,5.546,2.4113,1.929,4.8226,3.6169,7.475,5.546s5.0637,3.6169,7.7161,5.546c2.6524,1.929,5.3048,3.6169,7.9573,5.546s5.3048,3.6169,8.1984,5.546c2.6524,1.929,5.546,3.6169,8.4395,5.546,1.929,1.2056,3.8581,2.6524,6.0282,3.8581,1.929-1.2056,4.0992-2.6524,6.0282-3.8581,2.6524-1.6879,5.546-3.6169,8.4395-5.546,2.6524-1.6879,5.3048-3.6169,8.1984-5.546,2.6524-1.6879,5.3048-3.6169,7.9573-5.546s5.3048-3.6169,7.7161-5.546c2.6524-1.929,5.0637-3.6169,7.475-5.546s4.8226-3.6169,7.475-5.546c2.4113-1.929,4.8226-3.6169,7.2339-5.546,2.1702-1.6879,4.5815-3.6169,6.9928-5.546,2.1702-1.6879,4.5815-3.6169,6.7516-5.546h0c2.1702-1.6879,4.3403-3.6169,6.5105-5.546s4.3403-3.6169,6.5105-5.546,4.0992-3.6169,6.2694-5.546c1.929-1.929,4.0992-3.6169,6.0282-5.546,1.929-1.6879,3.8581-3.6169,5.7871-5.546,1.929-1.6879,3.8581-3.6169,5.7871-5.546,1.929-1.6879,3.8581-3.6169,5.546-5.546s3.6169-3.6169,5.3048-5.546,3.6169-3.6169,5.3048-5.546,3.3758-3.6169,5.3048-5.546c1.6879-1.929,3.1347-3.6169,4.8226-5.546,1.6879-1.6879,3.1347-3.6169,4.8226-5.546,1.6879-1.6879,3.1347-3.6169,4.5815-5.546,1.6879-1.929,3.1347-3.6169,4.5815-5.546,1.4468-1.929,2.8936-3.6169,4.3403-5.546s2.8936-3.6169,4.3403-5.546,2.8936-3.6169,4.0992-5.546c1.4468-1.6879,2.6524-3.6169,4.0992-5.546,1.2056-1.6879,2.6524-3.6169,3.8581-5.546,1.2056-1.6879,2.6524-3.6169,3.8581-5.546s2.4113-3.6169,3.6169-5.546,2.4113-3.6169,3.6169-5.546,2.1702-3.6169,3.3758-5.546c.9645-1.929,2.1702-3.6169,3.1347-5.546.9645-1.6879,2.1702-3.6169,3.1347-5.546.9645-1.6879,1.929-3.6169,2.8936-5.546.2411-.4823.7234-.9645.9645-1.4468.7234-1.2056,1.4468-2.6524,2.1702-3.8581.9645-1.929,1.929-3.6169,2.8936-5.546s1.6879-3.6169,2.6524-5.546c.9645-1.929,1.6879-3.6169,2.6524-5.546.9645-1.6879,1.6879-3.6169,2.4113-5.546.7234-1.6879,1.6879-3.6169,2.4113-5.546.7234-1.6879,1.4468-3.6169,2.1702-5.546.7234-1.929,1.4468-3.6169,2.1702-5.546.7234-1.929,1.2056-3.6169,1.929-5.546s1.2056-3.6169,1.929-5.546,1.2056-3.6169,1.6879-5.546c.7234-1.6879,1.2056-3.6169,1.6879-5.546.7234-1.6879,1.2056-3.6169,1.6879-5.546s.9645-3.6169,1.4468-5.546c.4823-1.929.9645-3.6169,1.4468-5.546.4823-1.929.9645-3.6169,1.2056-5.546.4823-1.929.7234-3.6169,1.2056-5.546.2411-1.6879.7234-3.6169.9645-5.546.2411-1.6879.7234-3.6169.9645-5.546.2411-1.929.4823-3.6169.7234-5.546,0-.9645.2411-1.6879.2411-2.6524H166.4654c0,.7234.2411,1.6879.2411,2.6524.2411,1.929.4823,3.6169.7234,5.546s.4823,3.6169.9645,5.546c.2411,1.929.7234,3.6169.9645,5.546.2411,1.929.7234,3.6169,1.2056,5.546.2411,1.6879.7234,3.6169,1.2056,5.546s.9645,3.6169,1.2056,5.546c.4823,1.929.9645,3.6169,1.4468,5.546.4823,1.929.9645,3.6169,1.6879,5.546.4823,1.929,1.2056,3.6169,1.6879,5.546.7234,1.929,1.2056,3.6169,1.929,5.546.7234,1.6879,1.2056,3.6169,1.929,5.546.7234,1.6879,1.2056,3.6169,1.929,5.546s1.4468,3.6169,2.1702,5.546c.7234,1.929,1.4468,3.6169,2.1702,5.546.7234,1.929,1.6879,3.6169,2.4113,5.546s1.6879,3.6169,2.4113,5.546,1.6879,3.6169,2.6524,5.546c.9645,1.6879,1.6879,3.6169,2.6524,5.546s1.929,3.6169,2.8936,5.546c.9645,1.929,1.929,3.6169,2.8936,5.546.9645,1.929,1.929,3.6169,3.1347,5.546.7234,1.4468,1.6879,2.8936,2.4113,4.3403.2411.4823.4823.7234.7234,1.2056.9645,1.929,2.1702,3.6169,3.1347,5.546,1.2056,1.6879,2.1702,3.6169,3.3758,5.546,1.2056,1.6879,2.4113,3.6169,3.6169,5.546s2.4113,3.6169,3.6169,5.546,2.4113,3.6169,3.8581,5.546c1.2056,1.929,2.6524,3.6169,3.8581,5.546s2.6524,3.6169,4.0992,5.546c1.2056,1.929,2.6524,3.6169,4.0992,5.546,1.4468,1.6879,2.8936,3.6169,4.3403,5.546,1.4468,1.929,2.8936,3.6169,4.5815,5.546,1.4468,1.929,2.8936,3.6169,4.5815,5.546,1.4468,1.929,3.1347,3.6169,4.5815,5.546,1.6879,1.929,3.1347,3.6169,4.8226,5.546s3.1347,3.6169,4.8226,5.546c1.6879,1.6879,3.3758,3.6169,5.3048,5.546,1.6879,1.929,3.6169,3.6169,5.3048,5.546,1.929,1.929,3.6169,3.6169,5.546,5.546s3.8581,3.6169,5.546,5.546c1.929,1.929,3.8581,3.6169,5.7871,5.546s3.8581,3.6169,6.0282,5.546c1.929,1.929,4.0992,3.6169,6.0282,5.546,1.929,1.6879,4.0992,3.6169,6.2694,5.546s4.3403,3.6169,6.5105,5.546c2.1702,1.6879,4.3403,3.617,6.5105,5.3049h.0004Z" style="fill: #015496; fill-rule: evenodd;"/>
  <path d="M164.7775,280.038v3.8581h470.4443V120.1689h-149.7417c-22.6662,0-46.2969-6.9928-64.6228-20.496-7.7161-5.7871-14.2266-13.021-20.7372-20.0138-6.7516,6.9928-13.2621,14.2267-21.2194,20.0138-21.2194,16.1557-46.5381,20.496-72.8212,20.496h-141.3021v159.8691h0Z" style="fill: #fff; fill-rule: evenodd;"/>
  <path d="M223.6132,160.6787h57.8712v9.6452h-46.2969v27.7299h40.7509v9.6452h-40.7509v38.5808h-11.5742v-85.6011h0ZM305.3562,247.0032h-11.5742v-86.3245h11.5742v42.68c14.2267-14.2267,28.4533-28.4533,42.68-42.68h15.6734c-12.0565,11.8154-24.113,23.6307-36.1695,35.4461,12.7799,16.8791,25.5598,33.9993,38.3396,50.8784h-15.4323c-10.6097-14.4678-20.9783-28.6945-31.588-43.1622-4.5815,4.5815-9.1629,8.9218-13.7444,13.5033.2411,9.8863.2411,20.0138.2411,29.659h.0001Z" style="fill: #015496; fill-rule: evenodd;"/>
  <polygon points="353.5822 318.3777 353.5822 317.4131 344.6604 317.4131 344.6604 318.3777 344.6604 323.9237 344.6604 326.8172 353.5822 326.8172 353.5822 323.9237 353.5822 318.3777" style="fill: #fff; fill-rule: evenodd;"/>
  <polygon points="175.8695 351.1713 175.8695 356.7173 175.8695 362.2633 175.8695 367.5681 175.8695 373.1141 175.8695 378.419 175.8695 383.965 175.8695 389.2698 185.5147 389.2698 185.5147 383.965 185.5147 378.419 185.5147 373.1141 185.5147 367.5681 185.5147 362.2633 185.5147 356.7173 185.5147 351.1713 185.5147 345.6254 185.5147 340.3205 185.5147 334.7745 185.5147 332.1221 187.4437 334.7745 191.0607 340.3205 194.6776 345.6254 198.2946 351.1713 202.1527 356.7173 205.7696 362.2633 209.3866 367.5681 213.0035 373.1141 216.8616 378.419 220.4785 383.965 223.8543 389.2698 234.4641 389.2698 234.4641 383.965 234.4641 378.419 234.4641 373.1141 234.4641 367.5681 234.4641 362.2633 234.4641 356.7173 234.4641 351.1713 234.4641 345.6254 234.4641 340.3205 234.4641 334.7745 234.4641 329.4696 234.4641 323.9237 234.4641 318.3777 234.4641 317.4131 224.8189 317.4131 224.8189 318.3777 224.8189 323.9237 224.8189 329.4696 224.8189 334.7745 224.8189 340.3205 224.8189 345.6254 224.8189 351.1713 224.8189 356.7173 224.8189 362.2633 224.8189 367.5681 224.8189 373.1141 224.8189 374.3198 224.0955 373.1141 220.4785 367.5681 216.6205 362.2633 213.0035 356.7173 209.3866 351.1713 205.7696 345.6254 201.9115 340.3205 198.2946 334.7745 194.6776 329.4696 191.0607 323.9237 187.4437 318.3777 186.7203 317.4131 175.8695 317.4131 175.8695 318.3777 175.8695 323.9237 175.8695 329.4696 175.8695 334.7745 175.8695 340.3205 175.8695 345.6254 175.8695 351.1713" style="fill: #fff; fill-rule: evenodd;"/>
  <path d="M594.7121,351.1713v38.5808h8.9218v-29.9001c0-.9645.2411-1.929.2411-2.8936.2411-2.1702.7234-3.8581,1.4468-5.546.2411-.4823.4823-1.2056.7234-1.6879.9645-1.4468,1.929-2.6524,3.1347-3.8581.9645-.7234,1.929-1.4468,3.3758-2.1702,2.8936-1.2056,6.5105-1.929,10.8508-2.1702v-6.2694h-2.6524c-4.0992,0-7.7161,1.2056-10.8508,3.3758-.7234.4823-1.4468,1.2056-2.1702,1.6879-1.6879,1.6879-2.8936,3.3758-3.8581,5.546-.2411.4823-.2411.9645-.4823,1.4468h-.2411v-10.1275h-8.9218v13.9855h.4823v.0002Z" style="fill: #fff; fill-rule: evenodd;"/>
  <path d="M543.3514,351.1713v1.2056h8.6807v-1.2056c.2411-2.1702.7234-4.0992,1.6879-5.546.7234-.9645,1.6879-1.929,2.8936-2.4113,2.8936-1.2056,6.0282-1.929,9.1629-1.929,2.6524,0,5.3048.7234,7.7161,1.929,1.2056.4823,1.929,1.2056,2.6524,2.4113.7234,1.4468,1.2056,3.1347,1.2056,5.546v.7234c0,2.1702-.2411,3.8581-.9645,4.8226v.2411c-.7234.7234-1.6879,1.2056-2.6524,1.6879-1.2056.2411-3.1347.4823-6.5105.7234-5.3048.4823-9.6452,1.2056-13.021,2.1702-.9645.2411-1.929.7234-2.8936.9645-1.929.7234-3.6169,1.6879-5.0637,2.6524-.9645.9645-1.929,1.929-2.6524,2.8936-.4823.7234-.7234,1.2056-.9645,1.929-.4823.9645-.7234,2.1702-.9645,3.6169v2.4113c0,.9645,0,1.929.2411,2.8936.2411,1.929.9645,3.6169,1.929,5.546.4823.7234.7234,1.4468,1.2056,2.1702.9645,1.2056,2.4113,2.4113,4.3403,3.3758,2.6524,1.2056,6.2694,1.6879,10.6097,1.6879,2.8936,0,6.0282-.7234,9.404-1.6879h.2411c2.8936-.9645,5.3048-2.8936,6.9928-5.546.4823-.7234.9645-1.2056,1.2056-1.929,0,.7234.2411,1.2056.2411,1.929.4823,2.1702,1.4468,3.6169,2.6524,4.0992.9645.7234,2.4113.9645,4.0992,1.2056h4.5815c.7234,0,1.2056-.2411,1.6879-.2411v-6.5105c-1.6879,0-2.8936-.2411-3.6169-.7234-.7234-.2411-1.2056-.9645-1.4468-1.6879-.2411-.4823-.2411-1.2056-.2411-1.929v-16.638l.2411-5.546v-5.3048c0-1.929-.2411-3.8581-.9645-5.546-.7234-2.1702-1.6879-3.8581-3.3758-5.546-3.3758-3.6169-8.9218-5.3048-16.6379-5.3048-5.3048,0-9.6452.7234-13.021,2.4113-1.6879.7234-3.1347,1.6879-4.3403,2.8936s-2.1702,2.1702-2.8936,3.6169c-.2411.4823-.7234,1.2056-.7234,1.6879-.2412,2.1703-.4823,3.8582-.7235,5.7872h0ZM555.1667,367.5681c1.2056-.7234,2.6524-1.2056,4.5815-1.6879,2.6524-.4823,6.2694-.9645,10.8508-1.4468,1.929-.2411,3.3758-.4823,4.3403-.7234.7234-.2411,1.6879-.7234,2.6524-1.2056l-.2411,4.3403v.7234c-.2411,1.929-.4823,3.6169-.9645,5.546,0,.4823-.2411.9645-.2411,1.4468-.4823,1.4468-.9645,2.6524-1.929,3.8581-.7234,1.2056-1.6879,2.1702-2.6524,3.1347-1.2056.9645-2.6524,1.6879-4.0992,2.1702-1.6879.7234-3.8581.9645-6.0282.9645-1.929,0-3.6169-.2411-5.0637-.9645-1.2056-.4823-2.1702-1.2056-2.8936-2.4113-.7234-.9645-1.2056-1.929-1.6879-3.1347-.2411-.9645-.4823-2.1702-.4823-3.3758,0-.7234,0-1.4468.2411-2.1702.2411-1.6879.9645-2.8936,2.1702-4.0992.2411,0,.7234-.4823,1.4468-.9646h0Z" style="fill: #fff; fill-rule: evenodd;"/>
  <polygon points="520.4441 351.1713 516.1037 356.7173 511.7634 362.0222 507.4231 367.5681 503.0827 373.1141 498.7424 378.419 495.3666 382.7592 495.3666 383.965 495.3666 389.2698 538.0465 389.2698 538.0465 383.965 538.0465 382.7592 506.2174 382.7592 509.5932 378.419 513.6924 373.1141 517.7916 367.5681 522.132 362.0222 526.2312 356.7173 530.5715 351.1713 534.6707 345.6254 536.5998 343.4552 536.5998 340.3205 536.5998 336.9447 497.5367 336.9447 497.5367 340.3205 497.5367 343.4552 526.7135 343.4552 524.5433 345.6254 520.4441 351.1713" style="fill: #fff; fill-rule: evenodd;"/>
  <path d="M443.5237,351.1713v1.2056h8.6807v-1.2056c.2411-2.1702.7234-4.0992,1.6879-5.546.7234-.9645,1.6879-1.929,2.8936-2.4113,2.8936-1.2056,6.0282-1.929,9.1629-1.929,2.6524,0,5.3048.7234,7.7161,1.929,1.2056.4823,1.929,1.2056,2.6524,2.4113.7234,1.4468,1.2056,3.1347,1.2056,5.546v.7234c0,2.1702-.2411,3.8581-.9645,4.8226v.2411c-.7234.7234-1.6879,1.2056-2.6524,1.6879-1.2056.2411-3.1347.4823-6.5105.7234-5.3048.4823-9.6452,1.2056-13.021,2.1702-.9645.2411-1.929.7234-2.8936.9645-1.929.7234-3.6169,1.6879-5.0637,2.6524-.9645.9645-1.929,1.929-2.6524,2.8936-.4823.7234-.7234,1.2056-.9645,1.929-.4823.9645-.7234,2.1702-.9645,3.6169v2.4113c0,.9645,0,1.929.2411,2.8936.2411,1.929.9645,3.6169,1.929,5.546.4823.7234.7234,1.4468,1.2056,2.1702.9645,1.2056,2.4113,2.4113,4.3403,3.3758,2.6524,1.2056,6.2694,1.6879,10.6097,1.6879,2.8936,0,6.0282-.7234,9.404-1.6879h.2411c2.8936-.9645,5.3048-2.8936,6.9928-5.546.4823-.7234.9645-1.2056,1.2056-1.929,0,.7234.2411,1.2056.2411,1.929.4823,2.1702,1.4468,3.6169,2.6524,4.0992.9645.7234,2.4113.9645,4.0992,1.2056h4.5815c.7234,0,1.2056-.2411,1.6879-.2411v-6.5105c-1.6879,0-2.8936-.2411-3.6169-.7234-.7234-.2411-1.2056-.9645-1.4468-1.6879-.2411-.4823-.2411-1.2056-.2411-1.929v-16.638l.2411-5.546v-5.3048c0-1.929-.2411-3.8581-.9645-5.546-.7234-2.1702-1.6879-3.8581-3.1347-5.546-3.3758-3.6169-8.9218-5.3048-16.6379-5.3048-5.3048,0-9.6452.7234-13.021,2.4113-1.6879.7234-3.1347,1.6879-4.3403,2.8936s-2.1702,2.1702-2.8936,3.6169c-.2411.4823-.7234,1.2056-.7234,1.6879-.4823,2.1703-.9646,3.8582-.9646,5.7872h.0004ZM455.339,367.5681c1.2056-.7234,2.6524-1.2056,4.5815-1.6879,2.6524-.4823,6.2694-.9645,10.8508-1.4468,1.929-.2411,3.3758-.4823,4.3403-.7234.7234-.2411,1.6879-.7234,2.6524-1.2056l-.2411,4.3403v.7234c0,1.929-.4823,3.6169-.9645,5.546,0,.4823-.2411.9645-.2411,1.4468-.4823,1.4468-.9645,2.6524-1.929,3.8581-.7234,1.2056-1.6879,2.1702-2.6524,3.1347-1.2056.9645-2.6524,1.6879-4.0992,2.1702-1.6879.7234-3.8581.9645-6.0282.9645-1.929,0-3.6169-.2411-5.0637-.9645-1.2056-.4823-2.1702-1.2056-2.8936-2.4113-.7234-.9645-1.2056-1.929-1.6879-3.1347-.2411-.9645-.4823-2.1702-.4823-3.3758,0-.7234,0-1.4468.2411-2.1702.2411-1.6879.9645-2.8936,2.1702-4.0992.2411,0,.7234-.4823,1.4468-.9646h-.0002Z" style="fill: #fff; fill-rule: evenodd;"/>
  <polygon points="344.6604 351.1713 344.6604 356.7173 344.6604 362.0222 344.6604 367.5681 344.6604 373.1141 344.6604 378.419 344.6604 383.965 344.6604 389.2698 353.5822 389.2698 353.5822 383.965 353.5822 378.419 353.5822 373.1141 353.5822 367.5681 353.5822 362.0222 353.5822 356.7173 353.5822 351.1713 353.5822 345.6254 353.5822 340.3205 353.5822 336.9447 344.6604 336.9447 344.6604 340.3205 344.6604 345.6254 344.6604 351.1713" style="fill: #fff; fill-rule: evenodd;"/>
  <polygon points="296.9167 351.1713 299.0869 356.7173 301.0159 362.0222 303.1861 367.5681 305.1151 373.1141 307.2853 378.419 309.2143 383.965 311.1433 389.2698 321.2708 389.2698 323.1998 383.965 325.37 378.419 327.2991 373.1141 329.4692 367.5681 331.3983 362.0222 333.5684 356.7173 335.4975 351.1713 337.6676 345.6254 339.5967 340.3205 340.8023 336.9447 331.1571 336.9447 330.1926 340.3205 328.0224 345.6254 326.3345 351.1713 324.4055 356.7173 322.7176 362.0222 320.7885 367.5681 318.8595 373.1141 317.1716 378.419 316.4482 380.1069 315.9659 378.419 314.0369 373.1141 312.1079 367.5681 310.1788 362.0222 308.2498 356.7173 306.3207 351.1713 304.3917 345.6254 302.4627 340.3205 301.257 336.9447 291.6118 336.9447 292.8175 340.3205 294.9877 345.6254 296.9167 351.1713" style="fill: #fff; fill-rule: evenodd;"/>
  <path d="M255.9246,389.511c3.1347,1.2056,6.5105,1.6879,10.1274,1.6879,3.8581,0,7.2339-.7234,10.3686-1.6879.2411,0,.2411-.2411.4823-.2411,3.1347-1.2056,5.546-3.1347,7.7161-5.3048l.2411-.2411c1.2056-1.6879,2.6524-3.1347,3.6169-5.3048.4823-1.2056.9645-2.4113,1.4468-3.8581.2411-.4823.4823-.9645.4823-1.6879.4823-1.6879.9645-3.6169.9645-5.546.2411-1.4468.2411-2.8936.2411-4.5815v-.9645c0-1.929-.2411-3.8581-.4823-5.546-.2411-1.929-.7234-3.8581-1.2056-5.546h0c-.7234-1.929-1.4468-3.8581-2.6524-5.546-.7234-1.2056-1.6879-2.1702-2.6524-3.3758l-2.1702-2.1702c-1.6879-1.4468-3.6169-2.6524-5.7871-3.3758-3.1347-1.2056-6.7516-1.929-10.8508-1.929-5.3048,0-9.6452.9645-13.7444,3.1347-.9645.7234-1.929,1.2056-2.8936,1.929-1.929,1.4468-3.3758,3.3758-4.5815,5.546-.4823.7234-.9645,1.4468-1.2056,2.1702-.4823.9645-.9645,2.1702-1.2056,3.1347-.4823,1.6879-.9645,3.6169-1.2056,5.546-.2411,1.6879-.4823,3.6169-.4823,5.546v.9645c0,1.6879,0,3.1347.2411,4.5815.2411,1.929.4823,3.6169.9645,5.546,0,.7234.2411,1.2056.4823,1.6879.4823,1.2056.9645,2.6524,1.6879,3.8581.9645,1.929,2.1702,3.6169,3.6169,5.3048l.2411.2411c2.1702,2.1702,4.8226,4.0992,7.7161,5.3048,0,.4823.2411.7234.4823.7234h.0001ZM254.9601,345.6254c2.4113-2.8936,6.2694-4.3403,11.092-4.3403,4.0992,0,7.475.9645,9.6452,3.1347.4823.4823.9645.7234,1.2056,1.2056,1.4468,1.6879,2.6524,3.3758,3.3758,5.546.2411.4823.2411.9645.4823,1.4468.2411,1.2056.7234,2.6524.9645,4.0992.2411,1.6879.4823,3.6169.4823,5.546v.9645c0,1.6879,0,3.1347-.2411,4.5815-.2411,1.929-.4823,3.6169-.9645,5.546v.4823c-.4823,1.929-1.2056,3.6169-2.1702,5.0637-.7234,1.2056-1.6879,2.1702-2.6524,3.1347-1.2056.9645-2.4113,1.6879-4.0992,2.1702-1.6879.7234-3.6169.9645-5.7871.9645-1.929,0-3.8581-.2411-5.546-.9645-1.4468-.4823-2.8936-1.2056-3.8581-2.1702s-1.929-1.929-2.6524-3.1347c-.9645-1.4468-1.6879-3.1347-2.1702-5.0637v-.4823c-.4823-1.6879-.9645-3.6169-.9645-5.546-.2411-1.4468-.2411-2.8936-.2411-4.5815v-.9645c0-1.929.2411-3.8581.4823-5.546.2411-1.929.7234-3.8581,1.4468-5.546.4823-1.2056.9645-2.4113,1.6879-3.6169-.4822-.4823,0-1.2057.4823-1.929h-.0002Z" style="fill: #fff; fill-rule: evenodd;"/>
  <path d="M389.2694,351.1713v38.5808h9.6452v-29.1767h18.8081c6.9928,0,12.5387-1.2056,16.6379-3.8581,2.1702-1.4468,4.0992-3.1347,5.546-5.546.9645-1.6879,1.6879-3.3758,2.1702-5.546.4823-1.6879.7234-3.6169.9645-5.546v-5.546c-.2411-1.929-.7234-3.8581-1.2056-5.546-.7234-2.1702-1.929-3.8581-3.1347-5.546-2.1702-2.6524-5.546-4.3403-9.6452-5.546-2.8936-.7234-6.2694-1.2056-10.1274-1.2056h-29.1767v34.4816h-.4823ZM398.6735,329.4696v-3.8581h17.6025c5.3048,0,9.404.9645,12.2976,2.8936.4823.2411.7234.7234,1.2056.9645,1.4468,1.2056,2.1702,3.1347,2.6524,5.546.2411.9645.2411,2.1702.2411,3.3758v2.1702c-.2411,2.1702-.7234,3.8581-1.4468,5.546-.7234,1.2056-1.2056,2.1702-2.1702,2.8936-1.2056.9645-2.6524,1.929-4.3403,2.4113-2.1702.7234-5.0637,1.2056-8.4395,1.2056h-17.6025v-23.1485h.0001Z" style="fill: #fff; fill-rule: evenodd;"/>
  <polygon points="498.5012 460.4031 498.5012 455.3394 301.7393 455.3394 301.7393 460.4031 301.7393 465.9491 301.7393 471.254 301.7393 476.8 301.7393 482.3459 301.7393 487.6508 301.7393 493.1967 301.7393 498.7428 301.7393 504.0477 301.7393 509.5936 301.7393 515.1396 301.7393 518.5154 498.5012 518.5154 498.5012 515.1396 498.5012 509.5936 498.5012 504.0477 498.5012 498.7428 498.5012 493.1967 498.5012 487.6508 498.5012 482.3459 498.5012 476.8 498.5012 471.254 498.5012 465.9491 498.5012 460.4031" style="fill: #fff; fill-rule: evenodd;"/>
  <path d="M347.554,465.9491c.2411-.7234.2411-1.2056.4823-1.6879h4.3403v45.5736h-6.0282v-34.4816h-10.3686v-3.1347h1.2056c1.6879,0,3.1347-.2411,4.5815-.7234.2411,0,.4823-.2411.7234-.2411,1.4468-.7234,2.6524-1.6879,3.6169-2.8936.9645-.9645,1.2056-1.6879,1.4468-2.4113h0Z" style="fill: #015496; fill-rule: evenodd;"/>
  <path d="M370.2202,465.9491c1.2056-.9645,2.6524-1.6879,4.0992-2.1702,2.1702-.7234,4.3403-.9645,5.7871-.9645,1.929,0,4.0992.2411,5.7871.7234,1.4468.2411,2.8936,1.2056,4.3403,2.4113l.7234.7234c1.2056,1.2056,2.1702,2.8936,3.1347,4.8226.2411.7234.4823,1.4468.7234,2.1702.2411.9645.7234,1.929.7234,3.1347.2411,1.6879.4823,3.3758.7234,5.546v5.546c0,1.929-.2411,3.8581-.4823,5.546-.2411,1.929-.7234,3.8581-1.2056,5.546-.2411,1.2056-.7234,2.1702-1.2056,3.1347-.4823.9645-.9645,1.6879-1.4468,2.4113-1.4468,2.1702-3.1347,3.8581-5.0637,4.5815-.7234.2411-1.2056.7234-1.929.9645-1.929.4823-3.8581.9645-5.7871.9645s-3.6169-.2411-5.3048-.9645c-.9645-.2411-2.1702-.9645-3.1347-1.4468-1.6879-.9645-2.8936-2.1702-3.8581-4.0992-.7234-1.2056-1.2056-2.8936-1.6879-4.8226h5.546c.2411,1.929,1.2056,3.3758,2.8936,4.5815l.2411.2411c1.4468.9645,3.1347,1.6879,5.546,1.6879,1.929,0,3.6169-.4823,5.3048-1.4468h0c1.6879-.9645,2.8936-2.6524,3.8581-5.0637v-.2411c.7234-1.4468,1.2056-3.3758,1.4468-5.546.2411-1.2056.2411-2.6524.2411-4.0992h0c-1.4468,1.929-3.6169,3.3758-6.2694,4.0992-1.4468.4823-2.8936.7234-4.8226.7234-1.6879,0-3.1347-.2411-4.5815-.7234-.9645-.2411-1.929-.7234-2.8936-1.2056-1.929-.9645-3.3758-2.4113-4.5815-4.0992-.2411-.2411-.4823-.7234-.7234-.9645-.7234-1.2056-1.2056-2.8936-1.4468-4.3403-.2411-1.2056-.2411-2.1702-.2411-3.6169v-1.929c.2411-2.1702.4823-3.8581,1.2056-5.546.4823-1.2056,1.2056-2.1702,1.929-3.1347.7234-1.6879,1.4468-2.4113,2.4113-3.1347h0l.0002-.0002ZM387.8226,471.4951c-.7234-.9645-1.2056-1.6879-2.1702-2.1702-1.4468-1.2056-3.3758-1.6879-5.7871-1.6879-1.929,0-3.6169.4823-5.0637,1.4468-.9645.7234-1.6879,1.4468-2.4113,2.4113-.2411.4823-.7234.9645-.7234,1.6879-.4823,1.2056-.9645,2.4113-.9645,3.8581,0,.7234-.2411,1.2056-.2411,1.929,0,1.2056.2411,2.4113.4823,3.6169.2411,1.4468,1.2056,2.8936,2.1702,3.8581.7234.7234,1.2056,1.2056,1.929,1.6879,1.4468.7234,2.8936,1.2056,4.8226,1.2056s3.8581-.4823,5.3048-1.2056c0,0,.2411,0,.2411-.2411,1.4468-.9645,2.6524-2.1702,3.1347-3.8581.2411-.4823.4823-.9645.7234-1.4468.2411-1.2056.4823-2.4113.4823-3.8581v-1.6879c-.2411-1.2056-.4823-2.4113-.9645-3.6169-.2411-.7234-.4823-1.4468-.9645-1.929h0Z" style="fill: #015496; fill-rule: evenodd;"/>
  <path d="M404.9429,465.9491c.2411,0,.2411-.2411.7234-.4823,2.1702-1.6879,5.546-2.6524,9.8863-2.6524,1.6879,0,3.3758.2411,5.546.7234,1.6879.2411,3.1347,1.2056,4.8226,2.4113l1.4468,1.4468c.9645.9645,1.929,2.4113,2.4113,4.0992.4823,1.4468.7234,3.1347.7234,5.0637v.4823c0,1.929-.2411,3.8581-.9645,5.3048h0c-.7234,1.6879-1.929,3.1347-3.6169,4.8226l-.4823.4823c-1.6879,1.4468-4.0992,3.1347-6.9928,5.0637-.2411,0-.4823.2411-.7234.4823-2.1702,1.4468-4.0992,2.6524-5.546,3.8581-.7234.7234-1.4468,1.2056-1.929,1.6879-.7234.7234-1.2056,1.2056-1.6879,1.929-.7234,1.2056-1.4468,2.1702-1.6879,3.6169h23.6307v5.0637h-30.6236c0-1.929,0-3.3758.4823-5.0637.2411-1.2056.7234-2.4113,1.2056-3.1347.2411-.7234.7234-1.4468,1.2056-2.1702.9645-1.4468,2.1702-2.6524,3.6169-3.8581.7234-.4823,1.2056-.9645,1.929-1.6879,1.929-1.2056,4.0992-2.8936,6.7516-4.5815.4823-.2411.9645-.7234,1.2056-.9645,1.4468-.9645,2.6524-1.6879,3.6169-2.6524.9645-.7234,1.929-1.6879,2.6524-2.8936,0-.2411.2411-.4823.2411-.7234.7234-1.2056,1.2056-2.8936,1.2056-4.8226v-.2411c0-1.929-.4823-3.8581-1.4468-5.0637-.2411-.4823-.7234-.9645-.9645-1.2056-1.6879-1.6879-3.8581-2.4113-6.7516-2.4113-1.6879,0-3.3758.2411-4.8226.9645-1.2056.7234-2.1702,1.4468-2.8936,2.6524l-.4823.4823c-.7234,1.4468-1.2056,2.8936-1.2056,4.8226h0v1.6879h-5.546v-1.4468c0-1.6879.2411-3.6169.9645-5.546h0c.7234-2.1701,2.1702-3.8581,4.0992-5.546h.0005Z" style="fill: #015496; fill-rule: evenodd;"/>
  <path d="M439.4244,465.9491c.7234-.4823,1.2056-.9645,1.929-1.2056,1.929-1.2056,4.5815-1.6879,7.7161-1.6879s5.7871.4823,7.7161,1.6879c.7234.2411,1.2056.9645,1.929,1.2056.9645.9645,1.929,1.929,2.4113,3.1347.2411.7234.7234,1.4468.9645,2.4113.2411.9645.4823,2.1702.4823,3.3758,0,.7234,0,1.2056-.2411,1.929s-.2411,1.6879-.7234,2.4113c-.4823,1.2056-1.2056,2.1702-1.929,3.1347l-.2411.2411c-.9645.9645-2.1702,1.6879-3.3758,2.1702,1.929.4823,3.6169,1.4468,5.0637,2.8936.2411.2411.7234.7234.9645,1.2056.9645,1.2056,1.6879,2.6524,1.929,4.3403.2411.9645.2411,2.1702.2411,3.1347,0,.7234,0,1.6879-.2411,2.1702-.2411,1.929-.7234,3.6169-1.6879,5.3048l-.2411.2411c-1.2056,1.929-2.8936,3.6169-5.0637,4.5815-.7234.2411-1.2056.7234-1.929.9645-1.929.4823-3.8581.9645-6.2694.9645-2.1702,0-4.3403-.2411-6.2694-.9645-.9645-.2411-1.6879-.7234-2.6524-1.2056-1.929-1.2056-3.3758-2.6524-4.5815-4.3403-.2411-.2411-.2411-.4823-.4823-.7234-.7234-1.4468-1.2056-3.1347-1.4468-4.5815v-2.1702c0-.9645,0-2.1702.2411-3.1347.2411-.7234.2411-1.4468.7234-2.1702.4823-1.2056,1.2056-2.4113,2.1702-3.3758l.7234-.7234c1.2056-1.2056,2.6524-1.929,4.3403-2.4113-1.4468-.4823-2.6524-1.4468-3.8581-2.4113-.2411-.4823-.7234-.9645-.9645-1.4468-.7234-1.2056-1.2056-2.6524-1.4468-3.8581-.2411-.7234-.2411-1.2056-.2411-1.929,0-1.2056,0-2.4113.4823-3.3758.2411-.7234.4823-1.6879.9645-2.4113.9647-1.4468,1.9292-2.4113,2.8937-3.3758h0ZM456.3035,471.4951c-.4823-1.2056-1.2056-1.929-2.1702-2.4113-1.6879-.9645-3.6169-1.4468-5.3048-1.4468-2.8936,0-4.8226.7234-6.2694,2.4113-.2411.4823-.7234.9645-.9645,1.6879-.4823.9645-.9645,2.1702-.9645,3.6169,0,.7234,0,1.2056.2411,1.929.2411,1.2056.9645,2.6524,1.6879,3.6169s1.929,1.6879,3.1347,1.929c.9645.2411,1.929.2411,2.8936.2411s1.929-.2411,2.6524-.2411c.4823-.2411.9645-.2411,1.4468-.7234,1.2056-.7234,2.1702-1.4468,2.6524-2.6524.2411-.7234.7234-1.4468.7234-2.1702s.2411-1.2056.2411-1.929c.7233-1.6879.4822-2.8936,0-3.8581h0l.0002.0002ZM452.6866,487.892c-.9645-.2411-2.1702-.4823-3.6169-.4823s-2.6524.2411-3.8581.4823c-1.2056.4823-2.4113.9645-3.3758,1.929-.9645.9645-1.4468,2.1702-1.929,3.3758-.2411.9645-.4823,1.929-.4823,2.8936s0,1.6879.2411,2.6524c.2411,1.2056.7234,2.1702,1.2056,2.8936.7234,1.2056,1.6879,1.929,2.6524,2.6524.2411.2411.7234.4823.9645.7234,1.4468.7234,2.8936.9645,4.3403.9645,1.2056,0,2.4113-.2411,3.8581-.7234.4823-.2411.9645-.4823,1.4468-.7234.7234-.4823,1.6879-1.2056,2.1702-2.1702.7234-.9645,1.2056-1.929,1.4468-3.3758.2411-.7234.2411-1.6879.2411-2.6524s-.2411-1.929-.2411-2.8936c-.4823-1.4468-1.2056-2.6524-2.1702-3.6169-.4823-.9645-1.688-1.6879-2.8936-1.929h0Z" style="fill: #015496; fill-rule: evenodd;"/>
  <path d="M347.3128,668.016c1.6879,1.929,3.3758,3.6169,5.3048,5.546,2.1702,1.929,4.3403,3.8581,6.7516,5.546,2.8936,1.929,5.7871,3.8581,8.9218,5.546,3.6169,1.929,7.2339,3.3758,11.092,4.5815l1.4468-4.5815.7234-1.929-1.4468-3.3758-2.4113-5.546-2.1702-5.546-2.4113-5.546-.9645-2.1702-23.6307-2.1702-5.546,3.8581.2411.2411c1.2056,1.9289,2.4113,3.8579,4.0992,5.5459h0v.0002ZM347.0717,673.5619c-1.6879-1.6879-3.3758-3.6169-4.8226-5.546-1.4468-1.6879-2.6524-3.6169-3.8581-5.546-1.2056-1.6879-2.1702-3.6169-3.1347-5.546-.9645-1.929-1.929-3.6169-2.6524-5.546-.7234-1.6879-1.4468-3.6169-2.1702-5.546-.7234-1.6879-1.2056-3.6169-1.6879-5.546-.4823-1.6879-.7234-3.6169-1.2056-5.546-.2411-1.929-.7234-3.6169-.7234-5.546-.2411-1.929-.2411-3.6169-.2411-5.546v-5.546c0-1.6879.2411-3.6169.4823-5.546s.4823-3.6169.9645-5.546c.2411-1.929.7234-3.6169,1.2056-5.546s.9645-3.6169,1.6879-5.546c.7234-1.929,1.4468-3.6169,2.1702-5.546.9645-1.929,1.6879-3.6169,2.8936-5.546.9645-1.929,2.1702-3.8581,3.3758-5.546,1.2056-1.929,2.6524-3.6169,4.0992-5.546,1.6879-1.929,3.1347-3.6169,5.0637-5.546,1.929-1.929,4.0992-3.8581,6.2694-5.546,2.4113-1.929,5.3048-3.8581,7.9573-5.546,3.6169-2.1702,7.475-3.8581,11.3331-5.546,8.1984-3.1347,16.8791-4.8226,26.2831-4.8226,9.1629,0,18.0847,1.6879,26.2831,4.8226,3.8581,1.4468,7.7161,3.3758,11.3331,5.546,2.8936,1.6879,5.546,3.3758,7.9573,5.546,2.1702,1.6879,4.3403,3.6169,6.2694,5.546,1.6879,1.6879,3.6169,3.6169,5.0637,5.546,1.4468,1.6879,2.8936,3.6169,4.0992,5.546,1.2056,1.6879,2.4113,3.6169,3.3758,5.546.9645,1.6879,1.929,3.6169,2.8936,5.546.7234,1.6879,1.4468,3.6169,2.1702,5.546.7234,1.6879,1.2056,3.6169,1.6879,5.546.4823,1.6879.9645,3.6169,1.2056,5.546s.7234,3.6169.9645,5.546c.2411,1.929.2411,3.6169.4823,5.546v5.546c0,1.929-.2411,3.6169-.2411,5.546-.2411,1.929-.4823,3.6169-.7234,5.546s-.7234,3.6169-1.2056,5.546-.9645,3.6169-1.6879,5.546-1.2056,3.6169-2.1702,5.546c-.7234,1.929-1.6879,3.6169-2.6524,5.546-.9645,1.929-2.1702,3.6169-3.1347,5.546-1.2056,1.929-2.6524,3.6169-3.8581,5.546-1.6879,1.929-3.1347,3.6169-4.8226,5.546-1.929,1.929-3.8581,3.8581-5.7871,5.546-2.4113,1.929-4.8226,3.8581-7.475,5.546-3.1347,2.1702-6.7516,3.8581-10.3686,5.546-6.5105,2.8936-13.2621,4.5815-20.496,5.546-2.8936.2411-5.546.4823-8.4395.4823s-5.7871-.2411-8.4395-.4823c-7.2339-.9645-14.2266-2.6524-20.7372-5.546-3.6169-1.4468-6.9928-3.3758-10.3686-5.546-2.6524-1.6879-5.3048-3.3758-7.475-5.546-3.1345-1.6879-5.0636-3.6169-6.9926-5.546h-.0003ZM447.1406,673.5619c1.929-1.6879,3.6169-3.6169,5.3048-5.546,1.4468-1.6879,2.8936-3.6169,4.3403-5.546l.2411-.2411-5.546-3.8581-23.6307,2.1702-.9645,1.929-2.4113,5.546-2.4113,5.546h0l-2.4113,5.546-1.4468,3.3758.7234,1.929,1.4468,4.5815c3.8581-1.2056,7.475-2.6524,11.092-4.5815,3.1347-1.6879,6.2694-3.3758,8.9218-5.546,2.4113-1.4466,4.5814-3.3757,6.7516-5.3047h0v-.0002ZM417.9639,673.5619l2.4113-5.546,2.1702-5.546,1.6879-3.6169-1.2056-1.6879-3.8581-5.546-3.8581-5.3048h-30.3824l-3.8581,5.3048-3.8581,5.546-1.2056,1.929,1.6879,3.6169,2.4113,5.546,2.4113,5.546,2.4113,5.546.4823.9645h30.3824l.4823-.9645,1.688-5.787h-.0002Z" style="fill: #015496; fill-rule: evenodd;"/>
  <path d="M456.0624,580.727l-.2411-.2411-.4823.2411-5.0637,3.6169-.4823,1.929-1.2056,5.546-1.2056,5.546-1.2056,5.546-.9645,5.0637.4823.2411,6.2694,5.546,6.2694,5.546,4.8226,4.3403h6.7516v-4.3403c0-1.929-.2411-3.6169-.4823-5.546-.2411-1.929-.4823-3.6169-.9645-5.546s-.9645-3.6169-1.4468-5.546c-.4823-1.929-1.2056-3.6169-1.929-5.546s-1.4468-3.6169-2.4113-5.546-1.929-3.6169-2.8936-5.546c-1.2057-1.9291-2.4113-3.617-3.617-5.3049h0l-.0002.0002Z" style="fill: #fff; fill-rule: evenodd;"/>
  <path d="M344.6604,580.727l-.4823-.2411-.2411.2411c-1.2056,1.6879-2.4113,3.6169-3.6169,5.546-1.2056,1.6879-2.1702,3.6169-2.8936,5.546-.9645,1.6879-1.6879,3.6169-2.4113,5.546s-1.2056,3.6169-1.929,5.546c-.4823,1.929-.9645,3.6169-1.4468,5.546-.2411,1.6879-.7234,3.6169-.9645,5.546-.2411,1.6879-.4823,3.6169-.4823,5.546v4.3403h6.7516l5.0637-4.3403,6.2694-5.546,6.2694-5.546.4823-.4823-1.2056-5.0637-1.2056-5.546-1.2056-5.546-1.2056-5.546-.2411-1.929-5.3049-3.6169h-.0002Z" style="fill: #fff; fill-rule: evenodd;"/>
  <polygon points="426.1623 569.6349 421.5808 566.5002 416.0348 569.6349 406.8719 575.181 401.8082 578.0745 401.8082 580.727 401.8082 586.0317 401.8082 591.5778 401.8082 593.5068 406.6308 597.1238 414.1058 602.4286 421.5808 607.9745 426.4034 611.5916 437.4954 607.9745 441.1124 606.769 442.0769 602.4286 443.2825 597.1238 444.7293 591.5778 445.935 586.0317 446.1761 584.3439 441.1124 580.727 433.6373 575.181 426.1623 569.6349" style="fill: #fff; fill-rule: evenodd;"/>
  <polygon points="383.7234 569.876 378.1775 566.5002 373.8371 569.876 366.121 575.181 358.6459 580.727 353.5822 584.3439 354.0645 586.0317 355.2701 591.5778 356.4758 597.1238 357.6814 602.4286 358.6459 606.769 362.504 607.9745 373.3549 611.5916 378.1775 607.9745 385.6525 602.4286 393.1275 597.1238 397.9501 593.5068 397.9501 591.5778 397.9501 586.0317 397.9501 580.727 397.9501 578.0745 393.1275 575.181 383.7234 569.876" style="fill: #fff; fill-rule: evenodd;"/>
  <polygon points="423.751 651.6191 427.3679 656.6827 450.0342 654.5126 450.9987 651.6191 452.9277 646.3143 454.6156 640.7682 456.3035 635.2223 458.2326 629.9174 459.6793 625.5771 458.2326 624.3713 451.9632 618.8254 445.935 613.5206 442.318 610.3859 433.1551 613.5206 427.6091 615.2084 426.4034 618.8254 424.7155 624.3713 423.0276 629.9174 421.0986 635.2223 419.4107 640.7682 418.205 644.144 419.6518 646.3143 423.751 651.6191" style="fill: #fff; fill-rule: evenodd;"/>
  <polygon points="348.5185 651.6191 349.483 654.5126 372.3903 656.6827 376.0073 651.6191 380.1065 646.3143 381.5533 644.144 380.3476 640.7682 378.6597 635.2223 376.7307 629.9174 375.0428 624.3713 373.3549 618.8254 372.1492 615.2084 366.6032 613.5206 357.4403 610.3859 353.8233 613.5206 347.554 618.8254 341.5257 624.3713 340.0789 625.5771 341.5257 629.9174 343.2136 635.2223 345.1427 640.7682 346.8306 646.3143 348.5185 651.6191" style="fill: #fff; fill-rule: evenodd;"/>
  <path d="M411.4534,553.238c-3.8581-.7234-7.7161-.9645-11.5742-.9645s-7.7161.2411-11.5742.9645-7.475,1.6879-11.092,2.8936l.7234,2.6524,1.2056,3.8581,2.6524,1.6879,9.1629,5.546,8.4395,5.0637,8.4395-5.0637,9.1629-5.546,2.6524-1.6879,1.2056-3.8581.9645-2.6524c-2.8936-1.2056-6.5105-2.1702-10.3686-2.8936h.0002Z" style="fill: #fff; fill-rule: evenodd;"/>
</svg>